# xmcd
# 
# Track frame offsets:
#     150
#     23738
#     39048
#     57578
#     72059
#     104084
#     118894
#     132966
#     153704
#     177547
#     191492
#     207166
# 
# Disc length: 2880
# 
# Revision: 1
# Processed by: cddbd v1.5.2PL0 Copyright (c) Steve Scherf et al.
# Submitted via: fre:ac v1.0.31
# 
DISCID=ae0b3e0c
DTITLE=Naragonia - Myriad
DYEAR=2015
DGENRE=Folk
TTITLE0=Sahzi
TTITLE1=Tourbillonne
TTITLE2=Les deux freres
TTITLE3=Bertille
TTITLE4=Hungry birds - Marchetti street
TTITLE5=Les talons
TTITLE6=Darius
TTITLE7=Irla
TTITLE8=Wolf - A kiss in Berlin
TTITLE9=Rod blues - Adam
TTITLE10=Koning Mathijs - Jacky the hero
TTITLE11=Sus the shaker
EXTD=
EXTT0=
EXTT1=
EXTT2=
EXTT3=
EXTT4=
EXTT5=
EXTT6=
EXTT7=
EXTT8=
EXTT9=
EXTT10=
EXTT11=
PLAYORDER=
